<svg height="300" id="sbv1" width="600" xmlns="http://www.w3.org/2000/svg" xmlns:svg="http://www.w3.org/2000/svg" xmlns:xlink="http://www.w3.org/1999/xlink">
	<title id="sbv-title">The graph of SBV tree</title>
	<desc id="sbv-desc">This graph was generated by SBV which was written by Peng. E-mail is aipeng0520@163.com</desc>
	<defs id="defs2">
		<marker class="arrow" id="marker5" markerHeight="10" markerUnits="strokeWidth" markerWidth="20" orient="auto" refX="20" refY="5" style="fill:#ff0000">
			<path d="M0,0 L20,5 L0,10 L10,5 z" />
		</marker>
		<marker class="arrow" id="marker6" markerHeight="10" markerUnits="strokeWidth" markerWidth="20" orient="auto" refX="20" refY="5" style="fill:#ff0000">
			<path d="M0,0 L20,5 L0,10 L10,5 z" />
		</marker>
		<symbol class="symbol" id="symbol7" viewBox="0 0 13.94 13.94">
			<circle cx="6.97" cy="6.97" r="5.97" style="stroke: #000; fill: #fb6a4a; stroke-width: 1" />
		</symbol>
		<symbol class="symbol" id="symbol8" viewBox="0 0 13.94 13.94">
			<polygon points="6.97,1 8.3103,5.1252 12.6478,5.1252 9.1387,7.6747 10.4791,11.7998 6.97,9.2503 3.4609,11.7998 4.8013,7.6747 1.2922,5.1252 5.6297,5.1252 " style="stroke: #000; fill: #9e9ac8; stroke-width: 1" />
		</symbol>
		<symbol class="symbol" id="symbol9" viewBox="0 0 13.94 13.94">
			<circle cx="6.97" cy="6.97" r="5.97" style="stroke-width: 1; stroke: #000; fill: #fb6a4a" />
		</symbol>
		<symbol class="symbol" id="symbol10" viewBox="0 0 13.94 13.94">
			<polygon points="6.97,1 8.3103,5.1252 12.6478,5.1252 9.1387,7.6747 10.4791,11.7998 6.97,9.2503 3.4609,11.7998 4.8013,7.6747 1.2922,5.1252 5.6297,5.1252 " style="stroke: #000; fill: #6baed6; stroke-width: 1" />
		</symbol>
		<symbol class="symbol" id="symbol11" viewBox="0 0 13.94 13.94">
			<circle cx="6.97" cy="6.97" r="5.97" style="stroke-width: 1; fill: #ef3b2c; stroke: #000" />
		</symbol>
		<symbol class="symbol" id="symbol12" viewBox="0 0 13.94 13.94">
			<polygon points="6.97,1 8.3103,5.1252 12.6478,5.1252 9.1387,7.6747 10.4791,11.7998 6.97,9.2503 3.4609,11.7998 4.8013,7.6747 1.2922,5.1252 5.6297,5.1252 " style="fill: #a1d99b; stroke: #000; stroke-width: 1" />
		</symbol>
		<symbol class="symbol" id="symbol13" viewBox="0 0 13.94 13.94">
			<circle cx="6.97" cy="6.97" r="5.97" style="fill: #74c476; stroke: #000; stroke-width: 1" />
		</symbol>
		<symbol class="symbol" id="symbol14" viewBox="0 0 13.94 13.94">
			<polygon points="6.97,1 8.3103,5.1252 12.6478,5.1252 9.1387,7.6747 10.4791,11.7998 6.97,9.2503 3.4609,11.7998 4.8013,7.6747 1.2922,5.1252 5.6297,5.1252 " style="fill: #6baed6; stroke: #000; stroke-width: 1" />
		</symbol>
		<symbol class="symbol" id="symbol15" viewBox="0 0 13.94 13.94">
			<circle cx="6.97" cy="6.97" r="5.97" style="stroke: #000; fill: #ef3b2c; stroke-width: 1" />
		</symbol>
		<symbol class="symbol" id="symbol16" viewBox="0 0 13.94 13.94">
			<polygon points="6.97,1 8.3103,5.1252 12.6478,5.1252 9.1387,7.6747 10.4791,11.7998 6.97,9.2503 3.4609,11.7998 4.8013,7.6747 1.2922,5.1252 5.6297,5.1252 " style="stroke-width: 1; fill: #a1d99b; stroke: #000" />
		</symbol>
		<symbol class="symbol" id="symbol17" viewBox="0 0 13.94 13.94">
			<circle cx="6.97" cy="6.97" r="5.97" style="stroke: #000; fill: #74c476; stroke-width: 1" />
		</symbol>
		<symbol class="symbol" id="symbol18" viewBox="0 0 13.94 13.94">
			<polygon points="6.97,1 8.3103,5.1252 12.6478,5.1252 9.1387,7.6747 10.4791,11.7998 6.97,9.2503 3.4609,11.7998 4.8013,7.6747 1.2922,5.1252 5.6297,5.1252 " style="stroke-width: 1; stroke: #000; fill: #9e9ac8" />
		</symbol>
		<symbol class="symbol" id="symbol19" viewBox="0 0 13.94 13.94">
			<circle cx="6.97" cy="6.97" r="5.97" style="stroke: #000; fill: #fb6a4a; stroke-width: 1" />
		</symbol>
		<symbol class="symbol" id="symbol20" viewBox="0 0 13.94 13.94">
			<polygon points="6.97,1 8.3103,5.1252 12.6478,5.1252 9.1387,7.6747 10.4791,11.7998 6.97,9.2503 3.4609,11.7998 4.8013,7.6747 1.2922,5.1252 5.6297,5.1252 " style="stroke-width: 1; fill: #9e9ac8; stroke: #000" />
		</symbol>
		<symbol class="symbol" id="symbol21" viewBox="0 0 13.94 13.94">
			<circle cx="6.97" cy="6.97" r="5.97" style="stroke-width: 1; stroke: #000; fill: #fb6a4a" />
		</symbol>
		<symbol class="symbol" id="symbol22" viewBox="0 0 13.94 13.94">
			<polygon points="6.97,1 8.3103,5.1252 12.6478,5.1252 9.1387,7.6747 10.4791,11.7998 6.97,9.2503 3.4609,11.7998 4.8013,7.6747 1.2922,5.1252 5.6297,5.1252 " style="stroke-width: 1; fill: #9e9ac8; stroke: #000" />
		</symbol>
		<style type="text/css"><![CDATA[svg {
stroke-width: 1;
fill-opacity: 1;
fill: none;
stroke: #000000;
}

path.heatmap {
stroke: #000000;
stroke-width: 0;
}

path.pie {
stroke-width: 0;
fill-opacity: 0.7;
}

path.clade {
stroke-width: 1;
fill-opacity: 1;
fill: none;
stroke: #000000;
}

path.selectot {
stroke-width: 1;
stroke: #000000;
}

path.range {
stroke-width: 0;
fill-opacity: 1;
fill: none;
stroke: #000000;
}

path.marker {
stroke: #000000;
stroke-width: 0;
}

text.leaf {
font-size: 14px;
font-style: normal;
font-weight: bold;
}

text.scale {
font-weight: bold;
}

text {
font-size: 12px;
fill: #000000;
font-style: normal;
font-family: Arial;
stroke-width: 0;
fill-opacity: 1;
font-weight: normal;
}

rect.selectot {
stroke-width: 1;
stroke: #000000;
}

rect.range {
fill-opacity: 1;
stroke-width: 0;
fill: none;
stroke: #000000;
}

rect.marker {
stroke: #000000;
stroke-width: 0;
}

rect.heatmap {
stroke-width: 0;
stroke: #000000;
}

rect {
stroke-width: 1;
stroke: #000000;
fill: none;
}

circle.marker {
fill-opacity: 0.7;
stroke-width: 0;
}

marker.arrow {
fill: #000000;
stroke: #000000;
stroke-width: 0;
}

line.scale {
stroke-width: 2;
}

line.tail {
stroke-width: 1;
}

line.linkage {
stroke: #444444;
stroke-dasharray: 4 4;
stroke-width: 1;
}

line.hgt {
stroke-width: 1;
}

line {
stroke: #000000;
stroke-width: 1;
}

]]></style>
	</defs>
	<g class="border" id="g3" />
	<rect class="background" height="260" style="fill: #eeeeee; stroke-width: 0" width="560" x="20" y="20" />
	<g id="tree4">
		<rect class="range" height="116.19" style="fill:#0000ff" width="46.76" x="489.24" y="163.808" />
		<rect class="range" height="46.476" style="fill:#00ff00" width="46.76" x="489.24" y="187.046" />
		<line class="scale" x1="20" x2="191.74" y1="24.38" y2="24.38" />
		<text class="scale" x="195.74" y="28.76">0.1</text>
		<rect class="range" height="23.238" width="10" x="166.36" y="94.094" />
		<line class="leaf" id="node_13" x1="166.36" x2="481.24" y1="105.713" y2="105.713" />
		<text class="leaf" x="489.24" y="110.823">ML</text>
		<rect class="range" height="23.238" width="10" x="166.36" y="117.332" />
		<line class="leaf" id="node_14" x1="166.36" x2="473.29" y1="128.951" y2="128.951" />
		<line class="linkage" x1="473.29" x2="485.24" y1="128.951" y2="128.951" />
		<text class="leaf" x="489.24" y="134.061">PG</text>
		<rect class="range" height="46.476" width="10" x="166.36" y="94.094" />
		<line class="clade" style="stroke:#ff0000" x1="166.36" x2="166.36" y1="105.713" y2="128.951" />
		<line class="clade" id="node_15" style="stroke:#ff0000" x1="50.98" x2="166.36" y1="117.332" y2="117.332" />
		<rect class="range" height="23.238" width="10" x="161.22" y="187.046" />
		<line class="leaf" id="node_6" style="stroke:#ff00cc" x1="161.22" x2="416.73" y1="198.665" y2="198.665" />
		<line class="linkage" x1="416.73" x2="485.24" y1="198.665" y2="198.665" />
		<text class="leaf" x="489.24" y="203.775">PC</text>
		<rect class="range" height="23.238" width="10" x="161.22" y="210.284" />
		<line class="leaf" id="node_7" style="stroke:#ff00cc" x1="161.22" x2="423.95" y1="221.903" y2="221.903" />
		<line class="linkage" x1="423.95" x2="485.24" y1="221.903" y2="221.903" />
		<text class="leaf" x="489.24" y="227.013">PP</text>
		<line class="clade" style="stroke:#ff00cc" x1="161.22" x2="161.22" y1="198.665" y2="221.903" />
		<line class="clade" id="node_8" style="stroke:#ff00cc" x1="130.82" x2="161.22" y1="210.284" y2="210.284" />
		<rect class="range" height="23.238" width="10" x="159.24" y="233.522" />
		<line class="leaf" id="node_3" style="stroke:#ff00cc" x1="159.24" x2="434.15" y1="245.141" y2="245.141" />
		<line class="linkage" x1="434.15" x2="485.24" y1="245.141" y2="245.141" />
		<text class="leaf" x="489.24" y="250.251">CC</text>
		<rect class="range" height="23.238" width="10" x="159.24" y="256.76" />
		<line class="leaf" id="node_4" style="stroke:#ff00cc" x1="159.24" x2="436.25" y1="268.379" y2="268.379" />
		<line class="linkage" x1="436.25" x2="485.24" y1="268.379" y2="268.379" />
		<text class="leaf" x="489.24" y="273.489">LB</text>
		<rect class="range" height="46.4760000000001" width="10" x="159.24" y="233.522" />
		<line class="clade" style="stroke:#ff00cc" x1="159.24" x2="159.24" y1="245.141" y2="268.379" />
		<line class="clade" id="node_5" style="stroke:#ff00cc" x1="130.82" x2="159.24" y1="256.76" y2="256.76" />
		<rect class="range" height="92.9520000000001" width="10" x="130.82" y="187.046" />
		<line class="clade" style="stroke:#ff00cc" x1="130.82" x2="130.82" y1="210.284" y2="256.76" />
		<line class="clade" id="node_9" style="stroke:#ff00cc" x1="88.31" x2="130.82" y1="233.522" y2="233.522" />
		<rect class="range" height="23.238" style="fill:#004499;stroke:#004499" width="46.76" x="489.24" y="163.808" />
		<line class="leaf" id="node_2" style="stroke:#ff00cc" x1="88.31" x2="456.11" y1="175.427" y2="175.427" />
		<line class="linkage" x1="456.11" x2="485.24" y1="175.427" y2="175.427" />
		<text class="leaf" x="489.24" y="180.537">AG1IA</text>
		<line class="clade" style="stroke:#ff00cc" x1="88.31" x2="88.31" y1="175.427" y2="233.522" />
		<line class="clade" id="node_10" style="stroke:#ff00cc" x1="58.3" x2="88.31" y1="204.4745" y2="204.4745" />
		<rect class="range" height="23.238" width="10" x="58.3" y="140.57" />
		<line class="leaf" id="node_11" x1="58.3" x2="454.43" y1="152.189" y2="152.189" />
		<line class="linkage" x1="454.43" x2="485.24" y1="152.189" y2="152.189" />
		<text class="leaf" x="489.24" y="157.299">CN</text>
		<rect class="range" height="139.428" width="10" x="58.3" y="140.57" />
		<line class="clade" style="stroke:#00ff00" x1="58.3" x2="58.3" y1="152.189" y2="204.4745" />
		<line class="clade" id="node_12" style="stroke:#00ff00" x1="50.98" x2="58.3" y1="178.33175" y2="178.33175" />
		<rect class="range" height="185.904" width="10" x="50.98" y="94.094" />
		<line class="clade" style="stroke:#ff0000" x1="50.98" x2="50.98" y1="117.332" y2="178.33175" />
		<line class="clade" id="node_16" style="stroke:#ff0000" x1="40.38" x2="50.98" y1="147.831875" y2="147.831875" />
		<rect class="range" height="23.238" width="10" x="40.38" y="70.856" />
		<line class="leaf" id="node_17" x1="40.38" x2="433.73" y1="82.475" y2="82.475" />
		<line class="linkage" x1="433.73" x2="485.24" y1="82.475" y2="82.475" />
		<text class="leaf" x="489.24" y="87.585">UM</text>
		<rect class="range" height="209.142" width="10" x="40.38" y="70.856" />
		<line class="clade" style="stroke:#ff0000" x1="40.38" x2="40.38" y1="82.475" y2="147.831875" />
		<line class="clade" id="node_18" style="stroke:#ff0000" x1="30" x2="40.38" y1="115.1534375" y2="115.1534375" />
		<rect class="range" height="23.238" style="fill:#00ffff;stroke:#00ffff" width="46.76" x="489.24" y="47.618" />
		<line class="leaf" id="node_1" x1="30" x2="475.56" y1="59.237" y2="59.237" />
		<line class="linkage" x1="475.56" x2="485.24" y1="59.237" y2="59.237" />
		<text class="leaf" x="489.24" y="64.347">MG</text>
		<rect class="range" height="232.38" width="10" x="30" y="47.618" />
		<line class="clade" x1="30" x2="30" y1="59.237" y2="115.1534375" />
		<line class="tail" id="node_19" x1="20" x2="30" y1="87.19521875" y2="87.19521875" />
		<line class="hgt" marker-end="url(#marker5)" style="stroke:#ff0000" x1="252.78" x2="296.695" y1="59.237" y2="245.141" />
		<line class="hgt" marker-end="url(#marker6)" style="stroke:#ff0000" x1="146.02" x2="319.825" y1="210.284" y2="128.951" />
		<g >
			<use height="13.9428" width="13.9428" x="540" xlink:href="#symbol7" y="121.9796" />
		</g>
		<g >
			<use height="13.9428" width="13.9428" x="557.9428" xlink:href="#symbol8" y="121.9796" />
		</g>
		<g >
			<use height="13.9428" width="13.9428" x="540" xlink:href="#symbol9" y="168.4556" />
		</g>
		<g >
			<use height="13.9428" width="13.9428" x="557.9428" xlink:href="#symbol10" y="168.4556" />
		</g>
		<g >
			<use height="13.9428" width="13.9428" x="540" xlink:href="#symbol11" y="191.6936" />
		</g>
		<g >
			<use height="13.9428" width="13.9428" x="557.9428" xlink:href="#symbol12" y="191.6936" />
		</g>
		<g >
			<use height="13.9428" width="13.9428" x="540" xlink:href="#symbol13" y="145.2176" />
		</g>
		<g >
			<use height="13.9428" width="13.9428" x="557.9428" xlink:href="#symbol14" y="145.2176" />
		</g>
		<g >
			<use height="13.9428" width="13.9428" x="540" xlink:href="#symbol15" y="214.9316" />
		</g>
		<g >
			<use height="13.9428" width="13.9428" x="557.9428" xlink:href="#symbol16" y="214.9316" />
		</g>
		<g >
			<use height="13.9428" width="13.9428" x="540" xlink:href="#symbol17" y="238.1696" />
		</g>
		<g >
			<use height="13.9428" width="13.9428" x="557.9428" xlink:href="#symbol18" y="238.1696" />
		</g>
		<g >
			<use height="13.9428" width="13.9428" x="540" xlink:href="#symbol19" y="52.2656" />
		</g>
		<g >
			<use height="13.9428" width="13.9428" x="557.9428" xlink:href="#symbol20" y="52.2656" />
		</g>
		<g >
			<use height="13.9428" width="13.9428" x="540" xlink:href="#symbol21" y="261.4076" />
		</g>
		<g >
			<use height="13.9428" width="13.9428" x="557.9428" xlink:href="#symbol22" y="261.4076" />
		</g>
		<g >
			<g id="g23" transform="translate(237.055,82.475)">
				<path class="pie" d="M0 -11.619 A11.619 11.619 0 0 1 5.7427 10.10062 L0 0 A0 0 0 0 0 0 0 Z" style="fill: #6baed6" />
			</g>
			<g id="g24" transform="translate(237.055,82.475)">
				<path class="pie" d="M5.7427 10.10062 A11.619 11.619 2.62462 1 1 -5.33659 -10.32095 L0 0 A0 0 2.62462 1 0 0 0 Z" style="fill: #fb6a4a" />
			</g>
			<g id="g25" transform="translate(237.055,82.475)">
				<path class="pie" d="M-5.33659 -10.32095 A11.619 11.619 5.80598 0 1 5e-05 -11.619 L0 0 A0 0 5.80598 0 0 0 0 Z" style="fill: #74c476" />
			</g>
		</g>
		<g >
			<g id="g26" transform="translate(319.825,128.951)">
				<path class="pie" d="M0 -11.619 A11.619 11.619 0 0 1 11.38419 2.32409 L0 0 A0 0 0 0 0 0 0 Z" style="fill: #6baed6" />
			</g>
			<g id="g27" transform="translate(319.825,128.951)">
				<path class="pie" d="M11.38419 2.32409 A11.619 11.619 1.77218 0 1 -9.73602 6.34122 L0 0 A0 0 1.77218 0 0 0 0 Z" style="fill: #fb6a4a" />
			</g>
			<g id="g28" transform="translate(319.825,128.951)">
				<path class="pie" d="M-9.73602 6.34122 A11.619 11.619 4.13509 0 1 5e-05 -11.619 L0 0 A0 0 4.13509 0 0 0 0 Z" style="fill: #74c476" />
			</g>
		</g>
		<g >
			<g id="g29" transform="translate(252.78,59.237)">
				<path class="pie" d="M0 -11.619 A11.619 11.619 0 1 1 -2.86713 11.2597 L0 0 A0 0 0 1 0 0 0 Z" style="fill: #6baed6" />
			</g>
			<g id="g30" transform="translate(252.78,59.237)">
				<path class="pie" d="M-2.86713 11.2597 A11.619 11.619 3.39093 0 1 -11.58651 -0.8683 L0 0 A0 0 3.39093 0 0 0 0 Z" style="fill: #fb6a4a" />
			</g>
			<g id="g31" transform="translate(252.78,59.237)">
				<path class="pie" d="M-11.58651 -0.8683 A11.619 11.619 4.78719 0 1 5e-05 -11.619 L0 0 A0 0 4.78719 0 0 0 0 Z" style="fill: #74c476" />
			</g>
		</g>
		<g >
			<g id="g32" transform="translate(73.305,204.4745)">
				<path class="pie" d="M0 -11.619 A11.619 11.619 0 0 1 10.40092 -5.17901 L0 0 A0 0 0 0 0 0 0 Z" style="fill: #6baed6" />
			</g>
			<g id="g33" transform="translate(73.305,204.4745)">
				<path class="pie" d="M10.40092 -5.17901 A11.619 11.619 1.1088 0 1 -1.07204 11.56944 L0 0 A0 0 1.1088 0 0 0 0 Z" style="fill: #fb6a4a" />
			</g>
			<g id="g34" transform="translate(73.305,204.4745)">
				<path class="pie" d="M-1.07204 11.56944 A11.619 11.619 3.23399 0 1 5e-05 -11.619 L0 0 A0 0 3.23399 0 0 0 0 Z" style="fill: #74c476" />
			</g>
		</g>
	</g>
</svg>