<svg height="600" id="sbv1" viewBox="100 80 660 500" width="600" xmlns="http://www.w3.org/2000/svg" xmlns:svg="http://www.w3.org/2000/svg" xmlns:xlink="http://www.w3.org/1999/xlink">
	<title id="sbv-title">The graph of SBV venn</title>
	<desc id="sbv-desc">This graph was generated by SBV which was written by Peng. E-mail is aipeng0520@163.com</desc>
	<defs id="defs2">
		<style type="text/css"><![CDATA[svg {
stroke: #000000;
fill: none;
stroke-width: 1;
fill-opacity: 1;
}

path {
stroke-width: 2;
fill-opacity: 0.3;
stroke: #000000;
}

circle {
fill-opacity: 0.3;
stroke-width: 2;
stroke: #000000;
}

text {
stroke-width: 0;
fill: #000000;
font-style: normal;
font-size: 12px;
font-family: Arial;
font-weight: normal;
}

text.title {
fill: #000000;
font-style: normal;
font-family: Arial;
font-weight: bold;
font-size: 12px;
}

text.label {
font-weight: bold;
font-family: Arial;
font-size: 14px;
fill: #000000;
font-style: normal;
}

ellipse {
fill-opacity: 0.3;
stroke-width: 2;
stroke: #000000;
}

rect.text {
stroke-width: 1;
stroke: #ffffff;
fill: #77cc66;
}

]]></style>
	</defs>
	<g id="venn3">
		<path d="M240 350 A110 75 0 0 1 343.463319293926 275.319936777872 L430 260 A160 140 0 1 1 430 440 L343.463319293926 424.680063222128 A110 75 0 0 1 240 350" style="fill:#0000ff;" />
		<path d="M240 350 A110 75 0 0 1 343.463319293926 275.319936777872 L430 260 A160 140 0 1 1 430 440 L343.463319293926 424.680063222128 A110 75 0 0 1 240 350" style="fill:#0099ff;" transform="rotate(72,420,320)" />
		<path d="M240 350 A110 75 0 0 1 343.463319293926 275.319936777872 L430 260 A160 140 0 1 1 430 440 L343.463319293926 424.680063222128 A110 75 0 0 1 240 350" style="fill:#00cc00;" transform="rotate(144,420,320)" />
		<path d="M240 350 A110 75 0 0 1 343.463319293926 275.319936777872 L430 260 A160 140 0 1 1 430 440 L343.463319293926 424.680063222128 A110 75 0 0 1 240 350" style="fill:#cc9900;" transform="rotate(216,420,320)" />
		<path d="M240 350 A110 75 0 0 1 343.463319293926 275.319936777872 L430 260 A160 140 0 1 1 430 440 L343.463319293926 424.680063222128 A110 75 0 0 1 240 350" style="fill:#ff0000;" transform="rotate(288,420,320)" />
		<path d="M240 350 A110 75 0 0 1 343.463319293926 275.319936777872 L430 260 A160 140 0 1 1 430 440 L343.463319293926 424.680063222128 A110 75 0 0 1 240 350" style="fill:none;stroke=>#000;" />
		<path d="M240 350 A110 75 0 0 1 343.463319293926 275.319936777872 L430 260 A160 140 0 1 1 430 440 L343.463319293926 424.680063222128 A110 75 0 0 1 240 350" style="fill:none;stroke=>#000;" transform="rotate(72,420,320)" />
		<path d="M240 350 A110 75 0 0 1 343.463319293926 275.319936777872 L430 260 A160 140 0 1 1 430 440 L343.463319293926 424.680063222128 A110 75 0 0 1 240 350" style="fill:none;stroke=>#000;" transform="rotate(144,420,320)" />
		<path d="M240 350 A110 75 0 0 1 343.463319293926 275.319936777872 L430 260 A160 140 0 1 1 430 440 L343.463319293926 424.680063222128 A110 75 0 0 1 240 350" style="fill:none;stroke=>#000;" transform="rotate(216,420,320)" />
		<path d="M240 350 A110 75 0 0 1 343.463319293926 275.319936777872 L430 260 A160 140 0 1 1 430 440 L343.463319293926 424.680063222128 A110 75 0 0 1 240 350" style="fill:none;stroke=>#000;" transform="rotate(288,420,320)" />
		<text class="label" x="485.995" y="40">set1</text>
		<text class="label" transform="rotate(-45,680,460)" x="665.995" y="460">set2</text>
		<text class="label" x="425.995" y="630">set3</text>
		<text class="label" x="271.99" y="540">set4</text>
		<text class="label" x="285.995" y="65">set5</text>
		<text id="text10000" x="516.665" y="104.38">2</text>
		<text id="text01000" x="636.665" y="354.38">1</text>
		<text id="text00100" x="446.665" y="544.38">1</text>
		<text id="text00010" x="216.665" y="414.38">2</text>
		<text id="text00001" x="256.665" y="174.38">0</text>
		<text id="text11000" x="421.665" y="324.38">0</text>
		<text id="text10100" x="489.665" y="274.38">0</text>
		<text id="text10010" x="481.665" y="377.38">0</text>
		<text id="text10001" x="391.665" y="402.38">0</text>
		<text id="text01100" x="326.665" y="319.38">0</text>
		<text id="text01010" x="389.665" y="231.38">0</text>
		<text id="text01001" x="509.665" y="197.38">1</text>
		<text id="text00110" x="569.665" y="254.38">0</text>
		<text id="text00101" x="565.665" y="364.38">1</text>
		<text id="text00011" x="529.665" y="457.38">0</text>
		<text id="text11100" x="429.665" y="474.38">0</text>
		<text id="text11010" x="321.665" y="464.38">0</text>
		<text id="text11001" x="273.665" y="377.38">0</text>
		<text id="text10110" x="251.665" y="272.38">0</text>
		<text id="text10101" x="321.665" y="199.38">0</text>
		<text id="text10011" x="401.665" y="149.38">0</text>
		<text id="text01110" x="527.665" y="239.38">0</text>
		<text id="text01101" x="534.665" y="312.38">0</text>
		<text id="text01011" x="530.665" y="397.38">0</text>
		<text id="text00111" x="458.665" y="432.38">0</text>
		<text id="text11110" x="378.665" y="454.38">0</text>
		<text id="text11101" x="324.665" y="397.38">0</text>
		<text id="text11011" x="278.665" y="321.38">0</text>
		<text id="text10111" x="316.665" y="256.38">0</text>
		<text id="text01111" x="371.665" y="191.38">0</text>
		<text id="text11111" x="451.665" y="204.38">1</text>
	</g>
</svg>