<?xml version="1.0" encoding="UTF-8" standalone="yes"?>

<svg height="480" id="sbv1" width="560" xmlns="http://www.w3.org/2000/svg" xmlns:svg="http://www.w3.org/2000/svg" xmlns:xlink="http://www.w3.org/1999/xlink">	<title id="sbv-title">The graph of SBV pie
	</title>	<desc id="sbv-desc">This graph was generated by SBV which was written by Peng. E-mail is aipeng0520@163.com
	</desc>
	<defs id="defs2">
		<symbol class="symbol" id="symbol13" viewBox="0 0 10 10">
			<rect height="8" style="fill: #fb6a4a; fill-opacity: 1; stroke: #000000; stroke-width: 1" width="8" x="1" y="1" />
		</symbol>
		<symbol class="symbol" id="symbol14" viewBox="0 0 10 10">
			<rect height="8" style="fill: #74c476; fill-opacity: 1; stroke: #000000; stroke-width: 1" width="8" x="1" y="1" />
		</symbol>
		<symbol class="symbol" id="symbol15" viewBox="0 0 10 10">
			<rect height="8" style="fill: #fff450; fill-opacity: 1; stroke: #000000; stroke-width: 1" width="8" x="1" y="1" />
		</symbol>
		<symbol class="symbol" id="symbol16" viewBox="0 0 10 10">
			<rect height="8" style="fill: #6baed6; fill-opacity: 1; stroke: #000000; stroke-width: 1" width="8" x="1" y="1" />
		</symbol>		<style type="text/css"><![CDATA[rect.background {
stroke-width: 0;
}

text.title {
font-weight: bold;
font-style: Italic;
font-size: 20px;
}

text {
fill: #000000;
font-weight: normal;
font-family: Arial;
stroke-width: 0;
font-style: normal;
font-size: 12px;
}

path.pie {
stroke: #ffffff;
stroke-width: 0;
}

svg {
fill: none;
stroke: #000000;
stroke-width: 1;
}

line {
stroke: #000000;
stroke-width: 1;
}

]]>
		</style>
	</defs>
	<g class="pie" id="pie_3">		<text class="title" x="187.08" y="38.6">test title
		</text>
		<g id="g4" transform="translate(225.39,251.3)">
			<path class="pie" d="M0 -186.39 A186.39 186.39 0 0 1 178.49724 53.66532 L0 0 A0 0 0 0 0 0 0 Z" style="fill: #fb6a4a; filter: url(#filter5)" transform="translate(12.03707,-8.95037)" />
		</g>		<text class="label" x="264.55" y="191.12">NAME1 59 29.6%
		</text>
		<g id="g6" transform="translate(225.39,251.3)">
			<path class="pie" d="M178.49724 53.66532 A186.39 186.39 1.86285 0 1 -176.71405 59.27374 L0 0 A0 0 1.86285 0 0 0 0 Z" style="fill: #74c476; filter: url(#filter7)" />
		</g>		<text class="label" x="179.2" y="348.86">NAME2 80 40.2%
		</text>
		<g id="g8" transform="translate(225.39,251.3)">
			<path class="pie" d="M-176.71405 59.27374 A186.39 186.39 4.38876 0 1 -177.6278 -56.47652 L0 0 A0 0 4.38876 0 0 0 0 Z" style="fill: #fff450; filter: url(#filter9)" />
		</g>		<text class="label" x="84.54" y="256.42">NAME3 20 10.1%
		</text>
		<g id="g10" transform="translate(225.39,251.3)">
			<path class="pie" d="M-177.6278 -56.47652 A186.39 186.39 5.02023 0 1 0.00087 -186.39 L0 0 A0 0 5.02023 0 0 0 0 Z" style="fill: #6baed6; filter: url(#filter11)" />
		</g>		<text class="label" x="122.71" y="180.46">NAME4 40 20.1%
		</text>
		<g class="legend" id="legend12">			<text style="fill:#000000;font-weight:bold;font-family:arial;font-style:normal;font-size:12px;" x="439.78" y="211.68">the title of legend
			</text>
			<g >
				<g >
					<use height="10" width="10" x="439.78" xlink:href="#symbol13" y="213.68" />
				</g>				<text style="font-face:normal;fill:#000000;font-weight:normal;font-family:Arial;font-style:normal;font:arial;font-size:12px;" x="453.78" y="223.68">NAME1
				</text>
				<g >
					<use height="10" width="10" x="439.78" xlink:href="#symbol14" y="225.68" />
				</g>				<text style="font-face:normal;fill:#000000;font-weight:normal;font-family:Arial;font-style:normal;font:arial;font-size:12px;" x="453.78" y="235.68">NAME2
				</text>
				<g >
					<use height="10" width="10" x="439.78" xlink:href="#symbol15" y="237.68" />
				</g>				<text style="font-face:normal;fill:#000000;font-weight:normal;font-family:Arial;font-style:normal;font:arial;font-size:12px;" x="453.78" y="247.68">NAME3
				</text>
				<g >
					<use height="10" width="10" x="439.78" xlink:href="#symbol16" y="249.68" />
				</g>				<text style="font-face:normal;fill:#000000;font-weight:normal;font-family:Arial;font-style:normal;font:arial;font-size:12px;" x="453.78" y="259.68">NAME4
				</text>
			</g>
		</g>
	</g>
	<defs >
		<filter id="filter5">
			<feOffset dx="3" dy="3" in="SourceAlpha" result="offOut" />
			<feGaussianBlur in="offOut" result="blurOut" stdDeviation="4" />
			<feBlend in="SourceGraphic" in2="blurOut" />
		</filter>
	</defs>
	<defs >
		<filter id="filter7">
			<feOffset dx="3" dy="3" in="SourceAlpha" result="offOut" />
			<feGaussianBlur in="offOut" result="blurOut" stdDeviation="4" />
			<feBlend in="SourceGraphic" in2="blurOut" />
		</filter>
	</defs>
	<defs >
		<filter id="filter9">
			<feOffset dx="3" dy="3" in="SourceAlpha" result="offOut" />
			<feGaussianBlur in="offOut" result="blurOut" stdDeviation="4" />
			<feBlend in="SourceGraphic" in2="blurOut" />
		</filter>
	</defs>
	<defs >
		<filter id="filter11">
			<feOffset dx="3" dy="3" in="SourceAlpha" result="offOut" />
			<feGaussianBlur in="offOut" result="blurOut" stdDeviation="4" />
			<feBlend in="SourceGraphic" in2="blurOut" />
		</filter>
	</defs>
</svg>