<?xml version="1.0" encoding="UTF-8" standalone="yes"?>

<svg height="800" id="sbv1" width="800" xmlns="http://www.w3.org/2000/svg" xmlns:svg="http://www.w3.org/2000/svg" xmlns:xlink="http://www.w3.org/1999/xlink">	<title id="sbv-title">The graph of SBV venn
	</title>	<desc id="sbv-desc">This graph was generated by SBV which was written by Peng. E-mail is aipeng0520@163.com
	</desc>
	<defs id="defs2">
		<symbol id="symbol4" viewBox="0 0 1100 600">
			<use xlink:href="#ellipses6" />
		</symbol>
		<ellipse cx="550" cy="300" id="ellipse5" rx="180" ry="310" />
		<g id="ellipses6">
			<use style="fill:#ff0000;" transform="rotate(60,550,300)" xlink:href="#ellipse5" />
			<use style="fill:#dfff00;" transform="rotate(-60,550,300)" xlink:href="#ellipse5" />
			<use style="fill:#00ff3f;" transform="translate(180,60) rotate(60,550,300)" xlink:href="#ellipse5" />
			<use style="fill:#009fff;" transform="translate(-180,60) rotate(-60,550,300)" xlink:href="#ellipse5" />
			<use style="fill:none;stroke=>#000;" transform="rotate(60,550,300)" xlink:href="#ellipse5" />
			<use style="fill:none;stroke=>#000;" transform="rotate(-60,550,300)" xlink:href="#ellipse5" />
			<use style="fill:none;stroke=>#000;" transform="translate(180,60) rotate(60,550,300)" xlink:href="#ellipse5" />
			<use style="fill:none;stroke=>#000;" transform="translate(-180,60) rotate(-60,550,300)" xlink:href="#ellipse5" />			<text class="label" x="221.335" y="136">A
			</text>			<text class="label" x="401.335" y="75">B
			</text>			<text class="label" x="666.335" y="75">C
			</text>			<text class="label" x="866.335" y="136">D
			</text>			<text x="194.995" y="286.57">1
			</text>			<text x="394.995" y="136.57">2
			</text>			<text x="684.995" y="136.57">1
			</text>			<text x="884.995" y="286.57">1
			</text>			<text x="314.995" y="206.57">0
			</text>			<text x="544.995" y="186.57">0
			</text>			<text x="774.995" y="206.57">2
			</text>			<text x="404.995" y="306.57">1
			</text>			<text x="544.995" y="406.57">1
			</text>			<text x="684.995" y="306.57">1
			</text>			<text x="339.995" y="446.57">0
			</text>			<text x="474.995" y="501.57">0
			</text>			<text x="614.995" y="501.57">1
			</text>			<text x="749.995" y="446.57">0
			</text>			<text x="544.995" y="546.57">2
			</text>
		</g>		<style type="text/css"><![CDATA[ellipse {
fill-opacity: 0.3;
stroke: #000000;
stroke-width: 1;
}

circle {
fill-opacity: 0.3;
stroke: #000000;
stroke-width: 1;
}

text.label {
fill: #000000;
font-family: Arial;
font-weight: bold;
font-style: normal;
font-size: 24px;
}

text {
fill: #000000;
font-weight: normal;
font-family: Arial;
stroke-width: 0;
font-style: normal;
font-size: 18px;
}

svg {
fill: none;
fill-opacity: 1;
stroke: #000000;
stroke-width: 1;
}

]]>
		</style>
	</defs>
	<rect class="background" height="760" style="fill: #eeeeee; stroke-width: 0" width="760" x="20" y="20" />
	<g id="venn3" />
	<use height="680" width="680" x="60" xlink:href="#symbol4" y="60" />
</svg>