<?xml version="1.0" encoding="UTF-8" standalone="yes"?>

<svg height="800" id="sbv1" width="800" xmlns="http://www.w3.org/2000/svg" xmlns:svg="http://www.w3.org/2000/svg" xmlns:xlink="http://www.w3.org/1999/xlink">	<title id="sbv-title">The graph of SBV venn
	</title>	<desc id="sbv-desc">This graph was generated by SBV which was written by Peng. E-mail is aipeng0520@163.com
	</desc>
	<defs id="defs2">
		<symbol id="symbol4" viewBox="-382 -408 786 782">
			<use xlink:href="#ellipses6" />
		</symbol>
		<ellipse cx="36" cy="-56" id="ellipse5" rx="160" ry="320" />
		<g id="ellipses6">
			<use style="fill:#ff0000;" xlink:href="#ellipse5" />
			<use style="fill:#fff400;" transform="rotate(72)" xlink:href="#ellipse5" />
			<use style="fill:#14ff00;" transform="rotate(144)" xlink:href="#ellipse5" />
			<use style="fill:#00ffe0;" transform="rotate(216)" xlink:href="#ellipse5" />
			<use style="fill:#0028ff;" transform="rotate(288)" xlink:href="#ellipse5" />
			<use style="fill:none;stroke=>#000;" xlink:href="#ellipse5" />
			<use style="fill:none;stroke=>#000;" transform="rotate(72)" xlink:href="#ellipse5" />
			<use style="fill:none;stroke=>#000;" transform="rotate(144)" xlink:href="#ellipse5" />
			<use style="fill:none;stroke=>#000;" transform="rotate(216)" xlink:href="#ellipse5" />
			<use style="fill:none;stroke=>#000;" transform="rotate(288)" xlink:href="#ellipse5" />			<text class="label" x="27.335" y="-380">A
			</text>			<text class="label" transform="rotate(72)" x="27.335" y="-380">B
			</text>			<text class="label" transform="rotate(144)" x="27.335" y="-380">C
			</text>			<text class="label" transform="rotate(216)" x="27.335" y="-380">D
			</text>			<text class="label" transform="rotate(288)" x="28.01" y="-380">E
			</text>			<text x="24.995" y="-293.43">1
			</text>			<text x="294.995" y="-53.43">2
			</text>			<text x="154.995" y="286.57">1
			</text>			<text x="-225.005" y="226.57">1
			</text>			<text x="-285.005" y="-123.43">1
			</text>			<text x="174.995" y="-123.43">0
			</text>			<text x="34.995" y="236.57">0
			</text>			<text x="94.995" y="-193.43">2
			</text>			<text x="-85.005" y="-208.43">0
			</text>			<text x="184.995" y="131.57">0
			</text>			<text x="-195.005" y="126.57">0
			</text>			<text x="224.995" y="46.57">0
			</text>			<text x="-65.005" y="226.57">2
			</text>			<text x="-175.005" y="-143.43">0
			</text>			<text x="-227.005" y="6.57">0
			</text>			<text x="84.995" y="156.57">0
			</text>			<text x="142.995" y="-146.43">0
			</text>			<text x="164.995" y="-13.43">0
			</text>			<text x="-38.005" y="214.57">0
			</text>			<text x="-98.005" y="-186.43">0
			</text>			<text x="14.995" y="-173.43">0
			</text>			<text x="-125.005" y="126.57">0
			</text>			<text x="184.995" y="106.57">0
			</text>			<text x="-216.005" y="38.57">0
			</text>			<text x="-155.005" y="-73.43">0
			</text>			<text x="-35.005" y="166.57">0
			</text>			<text x="134.995" y="86.57">1
			</text>			<text x="114.995" y="-93.43">1
			</text>			<text x="-65.005" y="-133.43">0
			</text>			<text x="-165.005" y="26.57">1
			</text>			<text x="-5.005" y="6.57">1
			</text>
		</g>		<style type="text/css"><![CDATA[ellipse {
fill-opacity: 0.3;
stroke: #000000;
stroke-width: 1;
}

circle {
fill-opacity: 0.3;
stroke: #000000;
stroke-width: 1;
}

text.label {
fill: #000000;
font-family: Arial;
font-weight: bold;
font-style: normal;
font-size: 24px;
}

text {
fill: #000000;
font-weight: normal;
font-family: Arial;
stroke-width: 0;
font-style: normal;
font-size: 18px;
}

svg {
fill: none;
fill-opacity: 1;
stroke: #000000;
stroke-width: 1;
}

]]>
		</style>
	</defs>
	<rect class="background" height="760" style="fill: #eeeeee; stroke-width: 0" width="760" x="20" y="20" />
	<g id="venn3" />
	<use height="680" width="680" x="60" xlink:href="#symbol4" y="60" />
</svg>